<svg xmlns="http://www.w3.org/2000/svg" width="914" height="534" viewBox="0 0 914 534">
<defs><linearGradient id="lin1" x1="0.146" y1="0.146" x2="0.854" y2="0.854"><stop offset="0.0%" stop-color="#6a5cff"/><stop offset="100.0%" stop-color="#00e0ff"/></linearGradient>
<radialGradient id="rad2" cx="50%" cy="38%" r="75%"><stop offset="0.0%" stop-color="#ffd23f"/><stop offset="100.0%" stop-color="#e8483f"/></radialGradient>
<filter id="glow3" x="-60%" y="-60%" width="220%" height="220%">
  <feGaussianBlur in="SourceAlpha" stdDeviation="7" result="b"/>
  <feFlood flood-color="#00e0ff" flood-opacity="0.9799999999999999"/>
  <feComposite in2="b" operator="in" result="g"/>
  <feMerge><feMergeNode in="g"/><feMergeNode in="g"/><feMergeNode in="SourceGraphic"/></feMerge>
</filter>
<filter id="neon4" x="-80%" y="-80%" width="260%" height="260%">
  <feGaussianBlur in="SourceAlpha" stdDeviation="9" result="b1"/>
  <feFlood flood-color="#ff4df0"/><feComposite in2="b1" operator="in" result="halo"/>
  <feGaussianBlur in="SourceAlpha" stdDeviation="3" result="b2"/>
  <feFlood flood-color="#ffffff"/><feComposite in2="b2" operator="in" result="hot"/>
  <feMerge><feMergeNode in="halo"/><feMergeNode in="halo"/><feMergeNode in="hot"/><feMergeNode in="SourceGraphic"/></feMerge>
</filter>
<filter id="sh5" x="-40%" y="-40%" width="180%" height="180%">
  <feDropShadow dx="0" dy="10" stdDeviation="11" flood-color="#000000" flood-opacity="0.35"/>
</filter>
<radialGradient id="spot7" cx="50%" cy="15%" r="80%">
  <stop offset="0%" stop-color="rgba(255,255,255,0.7)"/>
  <stop offset="60%" stop-color="rgba(255,255,255,0.175)"/>
  <stop offset="100%" stop-color="rgba(255,255,255,0)"/>
</radialGradient>
<radialGradient id="vig8" cx="50%" cy="50%" r="75%">
  <stop offset="55%" stop-color="rgba(0,0,0,0)"/>
  <stop offset="100%" stop-color="rgba(0,0,0,0.6)"/>
</radialGradient>
<linearGradient id="lin9" x1="0.067" y1="0.250" x2="0.933" y2="0.750"><stop offset="0.0%" stop-color="#6a5cff"/><stop offset="50.0%" stop-color="#00e0ff"/><stop offset="100.0%" stop-color="#ff4df0"/></linearGradient>
<pattern id="scan10" width="4" height="4" patternUnits="userSpaceOnUse">
  <rect width="4" height="2.0" fill="rgba(0,0,0,0.5)"/>
</pattern>
<linearGradient id="sheen11" x1="0" y1="0" x2="1" y2="0" gradientTransform="rotate(20 .5 .5)">
  <stop offset="0%" stop-color="rgba(255,255,255,0)"/>
  <stop offset="45%" stop-color="rgba(255,255,255,0)"/>
  <stop offset="50%" stop-color="rgba(255,255,255,0.7)"/>
  <stop offset="55%" stop-color="rgba(255,255,255,0)"/>
  <stop offset="100%" stop-color="rgba(255,255,255,0)"/>
</linearGradient></defs>
<rect width="914" height="534" fill="#1b1e24"/>
<text x="16" y="24" fill="#fff" font-family="sans-serif" font-size="15" font-weight="bold">AXM FX Blocks — v0.1 (SVG-filter + CSS + tokens, drop in anywhere)</text><g transform="translate(16,40)"><rect x="0" y="0" width="210" height="124" rx="12" fill="url(#lin1)"/><text x="8" y="142" fill="#cbd3dd" font-family="monospace" font-size="12">linearGradient</text></g><g transform="translate(240,40)"><rect width="210" height="124" rx="12" fill="url(#rad2)"/><text x="8" y="142" fill="#cbd3dd" font-family="monospace" font-size="12">radialGradient</text></g><g transform="translate(464,40)"><rect width="210" height="124" rx="12" fill="#0b0e14"/><g filter="url(#glow3)"><circle cx="105" cy="62" r="30" fill="#00e0ff"/></g><text x="8" y="142" fill="#cbd3dd" font-family="monospace" font-size="12">glow</text></g><g transform="translate(688,40)"><rect width="210" height="124" rx="12" fill="#0b0e14"/><g filter="url(#neon4)"><text x="105" y="70" font-family="Arial Black,sans-serif" font-size="30" font-weight="900" fill="#ffffff" text-anchor="middle">AXM</text></g><text x="8" y="142" fill="#cbd3dd" font-family="monospace" font-size="12">neon</text></g><g transform="translate(16,204)"><rect width="210" height="124" rx="12" fill="#eef1f6"/><g filter="url(#sh5)"><rect x="60" y="34" width="90" height="56" rx="12" fill="#ffffff"/></g><text x="8" y="142" fill="#cbd3dd" font-family="monospace" font-size="12">softShadow</text></g><g transform="translate(240,204)"><rect width="210" height="124" rx="12" fill="#ffd23f"/><circle cx="120.6" cy="77.6" r="26" fill="#3a2f5c"/><circle cx="119.8" cy="76.8" r="26" fill="#3a2f5c"/><circle cx="119.1" cy="76.1" r="26" fill="#3a2f5c"/><circle cx="118.4" cy="75.4" r="26" fill="#3a2f5c"/><circle cx="117.7" cy="74.7" r="26" fill="#3a2f5c"/><circle cx="117" cy="74" r="26" fill="#3a2f5c"/><circle cx="116.3" cy="73.3" r="26" fill="#3a2f5c"/><circle cx="115.6" cy="72.6" r="26" fill="#3a2f5c"/><circle cx="114.9" cy="71.9" r="26" fill="#3a2f5c"/><circle cx="114.2" cy="71.2" r="26" fill="#3a2f5c"/><circle cx="113.5" cy="70.5" r="26" fill="#3a2f5c"/><circle cx="112.8" cy="69.8" r="26" fill="#3a2f5c"/><circle cx="112.1" cy="69.1" r="26" fill="#3a2f5c"/><circle cx="111.4" cy="68.4" r="26" fill="#3a2f5c"/><circle cx="110.7" cy="67.7" r="26" fill="#3a2f5c"/><circle cx="109.9" cy="66.9" r="26" fill="#3a2f5c"/><circle cx="109.2" cy="66.2" r="26" fill="#3a2f5c"/><circle cx="108.5" cy="65.5" r="26" fill="#3a2f5c"/><circle cx="107.8" cy="64.8" r="26" fill="#3a2f5c"/><circle cx="107.1" cy="64.1" r="26" fill="#3a2f5c"/><circle cx="106.4" cy="63.4" r="26" fill="#3a2f5c"/><circle cx="105.7" cy="62.7" r="26" fill="#3a2f5c"/><circle cx="105" cy="62" r="26" fill="#e8483f"/><text x="8" y="142" fill="#cbd3dd" font-family="monospace" font-size="12">longShadow</text></g><g transform="translate(464,204)"><rect width="210" height="124" rx="12" fill="#c9ced8"/><rect x="55" y="40" width="100" height="44" rx="10" fill="#3a7bd5"/><rect x="55" y="40" width="100" height="44" rx="10" fill="none" stroke="rgba(255,255,255,0.5)" stroke-width="1.5"/><rect x="55" y="58" width="100" height="26" rx="10" fill="rgba(0,0,0,0.18)"/><text x="8" y="142" fill="#cbd3dd" font-family="monospace" font-size="12">rimBevel</text></g><g transform="translate(688,204)"><rect width="210" height="124" rx="12" fill="#141822"/><rect width="210" height="124" rx="12" fill="url(#spot7)"/><text x="8" y="142" fill="#cbd3dd" font-family="monospace" font-size="12">spotlight</text></g><g transform="translate(16,368)"><rect width="210" height="124" rx="12" fill="#4a7ad0"/><rect width="210" height="124" rx="12" fill="url(#vig8)"/><text x="8" y="142" fill="#cbd3dd" font-family="monospace" font-size="12">vignette</text></g><g transform="translate(240,368)"><rect width="210" height="124" rx="14" fill="#111318"/><rect x="3" y="3" width="204" height="118" rx="12" fill="none" stroke="url(#lin9)" stroke-width="4"/><text x="8" y="142" fill="#cbd3dd" font-family="monospace" font-size="12">gradientBorder</text></g><g transform="translate(464,368)"><rect width="210" height="124" rx="12" fill="#12d17a"/><rect width="210" height="124" rx="12" fill="url(#scan10)"/><text x="8" y="142" fill="#cbd3dd" font-family="monospace" font-size="12">scanlines</text></g><g transform="translate(688,368)"><rect width="210" height="124" rx="12" fill="#2a2f3a"/><rect width="210" height="124" rx="12" fill="url(#sheen11)"/><text x="8" y="142" fill="#cbd3dd" font-family="monospace" font-size="12">sheen</text></g>
</svg>
