<svg xmlns="http://www.w3.org/2000/svg" width="1100" height="620" viewBox="0 0 1100 620" role="img" aria-label="Useful capability, clear boundary.">
<defs><linearGradient id="bg" x2="1" y2="1"><stop stop-color="#eaf2f7"/><stop offset=".55" stop-color="#4355b9" stop-opacity=".18"/><stop offset="1" stop-color="#eaf2f7"/></linearGradient><radialGradient id="core"><stop stop-color="#13202b"/><stop offset=".18" stop-color="#087f8c"/><stop offset=".66" stop-color="#4355b9" stop-opacity=".6"/><stop offset="1" stop-color="#eaf2f7" stop-opacity="0"/></radialGradient><filter id="g"><feGaussianBlur stdDeviation="13" result="x"/><feMerge><feMergeNode in="x"/><feMergeNode in="SourceGraphic"/></feMerge></filter></defs>
<rect width="1100" height="620" fill="url(#bg)"/><rect x="55" y="55" width="990" height="510" rx="34" fill="#eaf2f7" fill-opacity=".72" stroke="#087f8c" stroke-opacity=".35"/>
<path d="M35 90h85M980 90h85M35 530h85M980 530h85" stroke="#087f8c" stroke-opacity=".4"/>
<text x="100" y="135" fill="#13202b" font-family="system-ui" font-size="17" font-weight="700" letter-spacing="3">PUBLIC-SAFE</text>
<text x="100" y="250" fill="#087f8c" font-family="system-ui" font-size="90" font-weight="800">LOCAL</text>
<text x="100" y="340" fill="#13202b" font-family="system-ui" font-size="52" font-weight="750">Useful capability, clear boundary.</text>
<text x="100" y="405" fill="#4f6575" font-family="system-ui" font-size="24">Protected parent · sparse child · local proof</text>
<g transform="translate(830 310)" filter="url(#g)"><ellipse rx="150" ry="102" fill="none" stroke="#087f8c" stroke-width="5"/><ellipse rx="105" ry="145" fill="none" stroke="#4355b9" stroke-width="3" opacity=".65"/><circle r="58" fill="url(#core)" stroke="#13202b" stroke-opacity=".45"/><circle cx="140.0" cy="0.0" r="8" fill="#087f8c" opacity=".8"/><circle cx="99.0" cy="63.6" r="8" fill="#4355b9" opacity=".8"/><circle cx="0.1" cy="90.0" r="8" fill="#087f8c" opacity=".8"/><circle cx="-98.9" cy="63.7" r="8" fill="#4355b9" opacity=".8"/><circle cx="-140.0" cy="0.1" r="8" fill="#087f8c" opacity=".8"/><circle cx="-99.2" cy="-63.5" r="8" fill="#4355b9" opacity=".8"/><circle cx="-0.3" cy="-90.0" r="8" fill="#087f8c" opacity=".8"/><circle cx="98.7" cy="-63.8" r="8" fill="#4355b9" opacity=".8"/></g>
<text x="100" y="505" fill="#087f8c" font-family="system-ui" font-size="18" font-weight="700">AXM VISUAL MOLD FOUNDRY v0.6</text></svg>