<svg xmlns="http://www.w3.org/2000/svg" width="872" height="206" viewBox="0 0 872 206">
<rect width="872" height="206" fill="#12151c"/>
<text x="16" y="16" fill="#fff" font-family="sans-serif" font-size="13" font-weight="bold">anim-kit proof — bouncing ball, procedural squash &amp; stretch (each frame = data, no hand-keys)</text><g>
  <line x1="22" y1="132" x2="80" y2="132" stroke="#39405020" stroke-width="0"/>
  <line x1="22" y1="130" x2="80" y2="130" stroke="#2a3140" stroke-width="2"/>
  <ellipse cx="51" cy="132" rx="14.7" ry="3.2" fill="#000" opacity="0.00"/>
  <ellipse cx="51" cy="38.0" rx="16.3" ry="30.0" fill="#ff5d5d" stroke="#8a1f1f" stroke-width="2"/>
  <text x="51" y="164" fill="#7f8895" font-family="monospace" font-size="9" text-anchor="middle">0</text>
</g><g>
  <line x1="92" y1="132" x2="150" y2="132" stroke="#39405020" stroke-width="0"/>
  <line x1="92" y1="130" x2="150" y2="130" stroke="#2a3140" stroke-width="2"/>
  <ellipse cx="121" cy="132" rx="14.7" ry="3.2" fill="#000" opacity="0.09"/>
  <ellipse cx="121" cy="66.2" rx="16.3" ry="30.0" fill="#ff5d5d" stroke="#8a1f1f" stroke-width="2"/>
  <text x="121" y="164" fill="#7f8895" font-family="monospace" font-size="9" text-anchor="middle">1</text>
</g><g>
  <line x1="162" y1="132" x2="220" y2="132" stroke="#39405020" stroke-width="0"/>
  <line x1="162" y1="130" x2="220" y2="130" stroke="#2a3140" stroke-width="2"/>
  <ellipse cx="191" cy="132" rx="14.7" ry="3.2" fill="#000" opacity="0.25"/>
  <ellipse cx="191" cy="117.5" rx="16.3" ry="30.0" fill="#ff5d5d" stroke="#8a1f1f" stroke-width="2"/>
  <text x="191" y="164" fill="#7f8895" font-family="monospace" font-size="9" text-anchor="middle">2</text>
</g><g>
  <line x1="232" y1="132" x2="290" y2="132" stroke="#39405020" stroke-width="0"/>
  <line x1="232" y1="130" x2="290" y2="130" stroke="#2a3140" stroke-width="2"/>
  <ellipse cx="261" cy="132" rx="14.7" ry="3.2" fill="#000" opacity="0.17"/>
  <ellipse cx="261" cy="92.6" rx="16.3" ry="30.0" fill="#ff5d5d" stroke="#8a1f1f" stroke-width="2"/>
  <text x="261" y="164" fill="#7f8895" font-family="monospace" font-size="9" text-anchor="middle">3</text>
</g><g>
  <line x1="302" y1="132" x2="360" y2="132" stroke="#39405020" stroke-width="0"/>
  <line x1="302" y1="130" x2="360" y2="130" stroke="#2a3140" stroke-width="2"/>
  <ellipse cx="331" cy="132" rx="16.3" ry="3.2" fill="#000" opacity="0.11"/>
  <ellipse cx="331" cy="73.0" rx="18.1" ry="24.5" fill="#ff5d5d" stroke="#8a1f1f" stroke-width="2"/>
  <text x="331" y="164" fill="#7f8895" font-family="monospace" font-size="9" text-anchor="middle">4</text>
</g><g>
  <line x1="372" y1="132" x2="430" y2="132" stroke="#39405020" stroke-width="0"/>
  <line x1="372" y1="130" x2="430" y2="130" stroke="#2a3140" stroke-width="2"/>
  <ellipse cx="401" cy="132" rx="14.7" ry="3.2" fill="#000" opacity="0.14"/>
  <ellipse cx="401" cy="83.3" rx="16.3" ry="30.0" fill="#ff5d5d" stroke="#8a1f1f" stroke-width="2"/>
  <text x="401" y="164" fill="#7f8895" font-family="monospace" font-size="9" text-anchor="middle">5</text>
</g><g>
  <line x1="442" y1="132" x2="500" y2="132" stroke="#39405020" stroke-width="0"/>
  <line x1="442" y1="130" x2="500" y2="130" stroke="#2a3140" stroke-width="2"/>
  <ellipse cx="471" cy="132" rx="14.7" ry="3.2" fill="#000" opacity="0.23"/>
  <ellipse cx="471" cy="111.0" rx="16.3" ry="30.0" fill="#ff5d5d" stroke="#8a1f1f" stroke-width="2"/>
  <text x="471" y="164" fill="#7f8895" font-family="monospace" font-size="9" text-anchor="middle">6</text>
</g><g>
  <line x1="512" y1="132" x2="570" y2="132" stroke="#39405020" stroke-width="0"/>
  <line x1="512" y1="130" x2="570" y2="130" stroke="#2a3140" stroke-width="2"/>
  <ellipse cx="541" cy="132" rx="17.2" ry="3.2" fill="#000" opacity="0.25"/>
  <ellipse cx="541" cy="118.8" rx="19.2" ry="21.8" fill="#ff5d5d" stroke="#8a1f1f" stroke-width="2"/>
  <text x="541" y="164" fill="#7f8895" font-family="monospace" font-size="9" text-anchor="middle">7</text>
</g><g>
  <line x1="582" y1="132" x2="640" y2="132" stroke="#39405020" stroke-width="0"/>
  <line x1="582" y1="130" x2="640" y2="130" stroke="#2a3140" stroke-width="2"/>
  <ellipse cx="611" cy="132" rx="16.6" ry="3.2" fill="#000" opacity="0.22"/>
  <ellipse cx="611" cy="107.4" rx="18.5" ry="23.4" fill="#ff5d5d" stroke="#8a1f1f" stroke-width="2"/>
  <text x="611" y="164" fill="#7f8895" font-family="monospace" font-size="9" text-anchor="middle">8</text>
</g><g>
  <line x1="652" y1="132" x2="710" y2="132" stroke="#39405020" stroke-width="0"/>
  <line x1="652" y1="130" x2="710" y2="130" stroke="#2a3140" stroke-width="2"/>
  <ellipse cx="681" cy="132" rx="15.4" ry="3.2" fill="#000" opacity="0.23"/>
  <ellipse cx="681" cy="111.8" rx="17.1" ry="27.5" fill="#ff5d5d" stroke="#8a1f1f" stroke-width="2"/>
  <text x="681" y="164" fill="#7f8895" font-family="monospace" font-size="9" text-anchor="middle">9</text>
</g><g>
  <line x1="722" y1="132" x2="780" y2="132" stroke="#39405020" stroke-width="0"/>
  <line x1="722" y1="130" x2="780" y2="130" stroke="#2a3140" stroke-width="2"/>
  <ellipse cx="751" cy="132" rx="15.2" ry="3.2" fill="#000" opacity="0.26"/>
  <ellipse cx="751" cy="122.6" rx="16.9" ry="27.9" fill="#ff5d5d" stroke="#8a1f1f" stroke-width="2"/>
  <text x="751" y="164" fill="#7f8895" font-family="monospace" font-size="9" text-anchor="middle">10</text>
</g><g>
  <line x1="792" y1="132" x2="850" y2="132" stroke="#39405020" stroke-width="0"/>
  <line x1="792" y1="130" x2="850" y2="130" stroke="#2a3140" stroke-width="2"/>
  <ellipse cx="821" cy="132" rx="25.2" ry="3.2" fill="#000" opacity="0.28"/>
  <ellipse cx="821" cy="128.0" rx="28.0" ry="14.3" fill="#ff5d5d" stroke="#8a1f1f" stroke-width="2"/>
  <text x="821" y="164" fill="#7f8895" font-family="monospace" font-size="9" text-anchor="middle">11</text>
</g>
</svg>
