<svg xmlns="http://www.w3.org/2000/svg" width="1048" height="262" viewBox="0 0 1048 262">
<rect width="1048" height="262" fill="#0f1218"/>
<text x="18" y="18" fill="#fff" font-family="sans-serif" font-size="13" font-weight="bold">anim-kit proof — death → respawn-evolution morph  ·  Long Reach  (died to melee → grow longer arms)</text><line x1="26" y1="171" x2="102" y2="171" stroke="#212a3b" stroke-width="2"/><g opacity="1">
  <line x1="65.6" y1="56.1" x2="62.2" y2="136.0" stroke="#37507a" stroke-width="8" stroke-linecap="round" opacity="1"/><line x1="62.2" y1="136.0" x2="52.6" y2="166.6" stroke="#37507a" stroke-width="7" stroke-linecap="round" opacity="1"/>
  <line x1="65.6" y1="56.1" x2="64.2" y2="82.1" stroke="#37507a" stroke-width="6" stroke-linecap="round" opacity="1"/><line x1="64.2" y1="82.1" x2="67.3" y2="103.9" stroke="#37507a" stroke-width="5" stroke-linecap="round" opacity="1"/>
  <line x1="64.0" y1="102.1" x2="65.6" y2="56.1" stroke="#2f3b56" stroke-width="11" stroke-linecap="round" opacity="1"/>
  <line x1="64.0" y1="102.1" x2="65.8" y2="136.0" stroke="#5c8ff5" stroke-width="9" stroke-linecap="round" opacity="1"/><line x1="65.8" y1="136.0" x2="64.1" y2="168.0" stroke="#5c8ff5" stroke-width="8" stroke-linecap="round" opacity="1"/>
  <line x1="65.6" y1="56.1" x2="67.0" y2="82.1" stroke="#5c8ff5" stroke-width="7" stroke-linecap="round" opacity="1"/><line x1="67.0" y1="82.1" x2="70.9" y2="103.7" stroke="#5c8ff5" stroke-width="6" stroke-linecap="round" opacity="1"/>
  <circle cx="66.1" cy="42.1" r="12.0" fill="#ffd7a8" stroke="#c98f5a" stroke-width="2"/>
</g><text x="64" y="222" fill="#7f8895" font-family="monospace" font-size="9" text-anchor="middle">0.00</text><line x1="118" y1="171" x2="194" y2="171" stroke="#212a3b" stroke-width="2"/><g opacity="1">
  <line x1="157.6" y1="56.1" x2="154.2" y2="136.0" stroke="#37507a" stroke-width="8" stroke-linecap="round" opacity="1"/><line x1="154.2" y1="136.0" x2="144.6" y2="166.6" stroke="#37507a" stroke-width="7" stroke-linecap="round" opacity="1"/>
  <line x1="157.6" y1="56.1" x2="156.2" y2="82.1" stroke="#37507a" stroke-width="6" stroke-linecap="round" opacity="1"/><line x1="156.2" y1="82.1" x2="159.3" y2="103.9" stroke="#37507a" stroke-width="5" stroke-linecap="round" opacity="1"/>
  <line x1="156.0" y1="102.1" x2="157.6" y2="56.1" stroke="#2f3b56" stroke-width="11" stroke-linecap="round" opacity="1"/>
  <line x1="156.0" y1="102.1" x2="157.8" y2="136.0" stroke="#5c8ff5" stroke-width="9" stroke-linecap="round" opacity="1"/><line x1="157.8" y1="136.0" x2="156.1" y2="168.0" stroke="#5c8ff5" stroke-width="8" stroke-linecap="round" opacity="1"/>
  <line x1="157.6" y1="56.1" x2="159.0" y2="82.1" stroke="#5c8ff5" stroke-width="7" stroke-linecap="round" opacity="1"/><line x1="159.0" y1="82.1" x2="162.9" y2="103.7" stroke="#5c8ff5" stroke-width="6" stroke-linecap="round" opacity="1"/>
  <circle cx="158.1" cy="42.1" r="12.0" fill="#ffd7a8" stroke="#c98f5a" stroke-width="2"/>
</g><text x="156" y="222" fill="#7f8895" font-family="monospace" font-size="9" text-anchor="middle">0.10</text><line x1="210" y1="171" x2="286" y2="171" stroke="#212a3b" stroke-width="2"/><g opacity="1">
  <line x1="249.7" y1="63.1" x2="246.1" y2="138.0" stroke="#37507a" stroke-width="8.352" stroke-linecap="round" opacity="1"/><line x1="246.1" y1="138.0" x2="236.1" y2="166.6" stroke="#37507a" stroke-width="7.308" stroke-linecap="round" opacity="1"/>
  <line x1="249.7" y1="63.1" x2="248.3" y2="87.4" stroke="#37507a" stroke-width="6.264" stroke-linecap="round" opacity="1"/><line x1="248.3" y1="87.4" x2="251.5" y2="107.8" stroke="#37507a" stroke-width="5.220000000000001" stroke-linecap="round" opacity="1"/>
  <line x1="248.0" y1="106.2" x2="249.7" y2="63.1" stroke="#2f3b56" stroke-width="11.484" stroke-linecap="round" opacity="1"/>
  <line x1="248.0" y1="106.2" x2="249.9" y2="138.0" stroke="#5c8ff5" stroke-width="9.396" stroke-linecap="round" opacity="1"/><line x1="249.9" y1="138.0" x2="248.1" y2="168.0" stroke="#5c8ff5" stroke-width="8.352" stroke-linecap="round" opacity="1"/>
  <line x1="249.7" y1="63.1" x2="251.1" y2="87.4" stroke="#5c8ff5" stroke-width="7.308" stroke-linecap="round" opacity="1"/><line x1="251.1" y1="87.4" x2="255.2" y2="107.7" stroke="#5c8ff5" stroke-width="6.264" stroke-linecap="round" opacity="1"/>
  <circle cx="250.2" cy="49.9" r="11.9" fill="#ffd7a8" stroke="#c98f5a" stroke-width="2"/>
</g><text x="248" y="222" fill="#7f8895" font-family="monospace" font-size="9" text-anchor="middle">0.20</text><line x1="302" y1="171" x2="378" y2="171" stroke="#212a3b" stroke-width="2"/><g opacity="0.756">
  <line x1="342.2" y1="108.6" x2="337.6" y2="151.0" stroke="#37507a" stroke-width="10.992" stroke-linecap="round" opacity="1"/><line x1="337.6" y1="151.0" x2="324.3" y2="167.2" stroke="#37507a" stroke-width="9.618" stroke-linecap="round" opacity="1"/>
  <line x1="342.2" y1="108.6" x2="340.3" y2="122.4" stroke="#37507a" stroke-width="8.244" stroke-linecap="round" opacity="1"/><line x1="340.3" y1="122.4" x2="344.6" y2="133.9" stroke="#37507a" stroke-width="6.870000000000001" stroke-linecap="round" opacity="1"/>
  <line x1="340.0" y1="133.0" x2="342.2" y2="108.6" stroke="#2f3b56" stroke-width="15.114" stroke-linecap="round" opacity="1"/>
  <line x1="340.0" y1="133.0" x2="342.4" y2="151.0" stroke="#5c8ff5" stroke-width="12.366000000000001" stroke-linecap="round" opacity="1"/><line x1="342.4" y1="151.0" x2="340.1" y2="168.0" stroke="#5c8ff5" stroke-width="10.992" stroke-linecap="round" opacity="1"/>
  <line x1="342.2" y1="108.6" x2="344.1" y2="122.4" stroke="#5c8ff5" stroke-width="9.618" stroke-linecap="round" opacity="1"/><line x1="344.1" y1="122.4" x2="349.4" y2="133.9" stroke="#5c8ff5" stroke-width="8.244" stroke-linecap="round" opacity="1"/>
  <circle cx="342.9" cy="101.2" r="11.4" fill="#ffd7a8" stroke="#c98f5a" stroke-width="2"/>
</g><text x="340" y="222" fill="#7f8895" font-family="monospace" font-size="9" text-anchor="middle">0.30</text><line x1="394" y1="171" x2="470" y2="171" stroke="#212a3b" stroke-width="2"/><g opacity="0.6">
  <line x1="434.4" y1="134.4" x2="429.3" y2="158.4" stroke="#37507a" stroke-width="12" stroke-linecap="round" opacity="1"/><line x1="429.3" y1="158.4" x2="414.8" y2="167.6" stroke="#37507a" stroke-width="10.5" stroke-linecap="round" opacity="1"/>
  <line x1="434.4" y1="134.4" x2="432.4" y2="142.2" stroke="#37507a" stroke-width="9" stroke-linecap="round" opacity="1"/><line x1="432.4" y1="142.2" x2="437.0" y2="148.8" stroke="#37507a" stroke-width="7.5" stroke-linecap="round" opacity="1"/>
  <line x1="432.0" y1="148.2" x2="434.4" y2="134.4" stroke="#2f3b56" stroke-width="16.5" stroke-linecap="round" opacity="1"/>
  <line x1="432.0" y1="148.2" x2="434.7" y2="158.4" stroke="#5c8ff5" stroke-width="13.5" stroke-linecap="round" opacity="1"/><line x1="434.7" y1="158.4" x2="432.2" y2="168.0" stroke="#5c8ff5" stroke-width="12" stroke-linecap="round" opacity="1"/>
  <line x1="434.4" y1="134.4" x2="436.4" y2="142.2" stroke="#5c8ff5" stroke-width="10.5" stroke-linecap="round" opacity="1"/><line x1="436.4" y1="142.2" x2="442.3" y2="148.7" stroke="#5c8ff5" stroke-width="9" stroke-linecap="round" opacity="1"/>
  <circle cx="435.1" cy="130.2" r="10.8" fill="#ffd7a8" stroke="#c98f5a" stroke-width="2"/>
</g><text x="432" y="222" fill="#7f8895" font-family="monospace" font-size="9" text-anchor="middle">0.40</text><line x1="486" y1="171" x2="562" y2="171" stroke="#212a3b" stroke-width="2"/><circle cx="524" cy="158" r="5.0" fill="#ffe58a" opacity="0.33"/><g opacity="0.225">
  <line x1="526.4" y1="134.4" x2="521.3" y2="158.4" stroke="#37507a" stroke-width="12" stroke-linecap="round" opacity="1"/><line x1="521.3" y1="158.4" x2="506.8" y2="167.6" stroke="#37507a" stroke-width="10.5" stroke-linecap="round" opacity="1"/>
  <line x1="526.4" y1="134.4" x2="524.4" y2="142.2" stroke="#37507a" stroke-width="9" stroke-linecap="round" opacity="1"/><line x1="524.4" y1="142.2" x2="529.0" y2="148.8" stroke="#37507a" stroke-width="7.5" stroke-linecap="round" opacity="1"/>
  <line x1="524.0" y1="148.2" x2="526.4" y2="134.4" stroke="#2f3b56" stroke-width="16.5" stroke-linecap="round" opacity="1"/>
  <line x1="524.0" y1="148.2" x2="526.7" y2="158.4" stroke="#5c8ff5" stroke-width="13.5" stroke-linecap="round" opacity="1"/><line x1="526.7" y1="158.4" x2="524.2" y2="168.0" stroke="#5c8ff5" stroke-width="12" stroke-linecap="round" opacity="1"/>
  <line x1="526.4" y1="134.4" x2="528.4" y2="142.2" stroke="#5c8ff5" stroke-width="10.5" stroke-linecap="round" opacity="1"/><line x1="528.4" y1="142.2" x2="534.3" y2="148.7" stroke="#5c8ff5" stroke-width="9" stroke-linecap="round" opacity="1"/>
  <circle cx="527.1" cy="130.2" r="10.8" fill="#ffd7a8" stroke="#c98f5a" stroke-width="2"/>
</g><text x="524" y="222" fill="#7f8895" font-family="monospace" font-size="9" text-anchor="middle">0.50</text><line x1="578" y1="171" x2="654" y2="171" stroke="#212a3b" stroke-width="2"/><g opacity="0.694">
  <line x1="617.7" y1="61.4" x2="614.1" y2="137.5" stroke="#37507a" stroke-width="8.72" stroke-linecap="round" opacity="1"/><line x1="614.1" y1="137.5" x2="603.5" y2="166.6" stroke="#37507a" stroke-width="7.630000000000001" stroke-linecap="round" opacity="1"/>
  <line x1="617.7" y1="61.4" x2="616.0" y2="91.0" stroke="#37507a" stroke-width="6.540000000000001" stroke-linecap="round" opacity="1"/><line x1="616.0" y1="91.0" x2="620.3" y2="117.8" stroke="#37507a" stroke-width="5.45" stroke-linecap="round" opacity="1"/>
  <line x1="616.0" y1="105.2" x2="617.7" y2="61.4" stroke="#2f3b56" stroke-width="11.99" stroke-linecap="round" opacity="1"/>
  <line x1="616.0" y1="105.2" x2="617.9" y2="137.5" stroke="#5c8ff5" stroke-width="9.81" stroke-linecap="round" opacity="1"/><line x1="617.9" y1="137.5" x2="616.1" y2="168.0" stroke="#5c8ff5" stroke-width="8.72" stroke-linecap="round" opacity="1"/>
  <line x1="617.7" y1="61.4" x2="619.5" y2="91.0" stroke="#5c8ff5" stroke-width="7.630000000000001" stroke-linecap="round" opacity="1"/><line x1="619.5" y1="91.0" x2="625.0" y2="117.6" stroke="#5c8ff5" stroke-width="6.540000000000001" stroke-linecap="round" opacity="1"/>
  <circle cx="618.3" cy="48.0" r="12.3" fill="#ffd7a8" stroke="#c98f5a" stroke-width="2"/>
</g><text x="616" y="222" fill="#7f8895" font-family="monospace" font-size="9" text-anchor="middle">0.60</text><line x1="670" y1="171" x2="746" y2="171" stroke="#212a3b" stroke-width="2"/><g opacity="0.992">
  <line x1="709.4" y1="21.4" x2="706.5" y2="126.1" stroke="#37507a" stroke-width="6.928" stroke-linecap="round" opacity="1"/><line x1="706.5" y1="126.1" x2="698.1" y2="166.1" stroke="#37507a" stroke-width="6.062" stroke-linecap="round" opacity="1"/>
  <line x1="709.4" y1="21.4" x2="707.9" y2="65.8" stroke="#37507a" stroke-width="5.196" stroke-linecap="round" opacity="1"/><line x1="707.9" y1="65.8" x2="711.7" y2="107.2" stroke="#37507a" stroke-width="4.33" stroke-linecap="round" opacity="1"/>
  <line x1="708.0" y1="81.7" x2="709.4" y2="21.4" stroke="#2f3b56" stroke-width="9.526" stroke-linecap="round" opacity="1"/>
  <line x1="708.0" y1="81.7" x2="709.5" y2="126.1" stroke="#5c8ff5" stroke-width="7.794" stroke-linecap="round" opacity="1"/><line x1="709.5" y1="126.1" x2="708.1" y2="168.0" stroke="#5c8ff5" stroke-width="6.928" stroke-linecap="round" opacity="1"/>
  <line x1="709.4" y1="21.4" x2="710.9" y2="65.8" stroke="#5c8ff5" stroke-width="6.062" stroke-linecap="round" opacity="1"/><line x1="710.9" y1="65.8" x2="715.8" y2="106.9" stroke="#5c8ff5" stroke-width="5.196" stroke-linecap="round" opacity="1"/>
  <circle cx="709.8" cy="3.1" r="13.1" fill="#ffd7a8" stroke="#c98f5a" stroke-width="2"/>
</g><text x="708" y="222" fill="#7f8895" font-family="monospace" font-size="9" text-anchor="middle">0.70</text><line x1="762" y1="171" x2="838" y2="171" stroke="#212a3b" stroke-width="2"/><g opacity="1">
  <line x1="801.6" y1="59.3" x2="798.2" y2="136.9" stroke="#37507a" stroke-width="8.096" stroke-linecap="round" opacity="1"/><line x1="798.2" y1="136.9" x2="788.4" y2="166.6" stroke="#37507a" stroke-width="7.084" stroke-linecap="round" opacity="1"/>
  <line x1="801.6" y1="59.3" x2="799.8" y2="92.3" stroke="#37507a" stroke-width="6.072" stroke-linecap="round" opacity="1"/><line x1="799.8" y1="92.3" x2="804.4" y2="123.0" stroke="#37507a" stroke-width="5.0600000000000005" stroke-linecap="round" opacity="1"/>
  <line x1="800.0" y1="103.9" x2="801.6" y2="59.3" stroke="#2f3b56" stroke-width="11.132" stroke-linecap="round" opacity="1"/>
  <line x1="800.0" y1="103.9" x2="801.8" y2="136.9" stroke="#5c8ff5" stroke-width="9.108" stroke-linecap="round" opacity="1"/><line x1="801.8" y1="136.9" x2="800.1" y2="168.0" stroke="#5c8ff5" stroke-width="8.096" stroke-linecap="round" opacity="1"/>
  <line x1="801.6" y1="59.3" x2="803.4" y2="92.3" stroke="#5c8ff5" stroke-width="7.084" stroke-linecap="round" opacity="1"/><line x1="803.4" y1="92.3" x2="809.2" y2="122.9" stroke="#5c8ff5" stroke-width="6.072" stroke-linecap="round" opacity="1"/>
  <circle cx="802.1" cy="45.7" r="11.9" fill="#ffd7a8" stroke="#c98f5a" stroke-width="2"/>
</g><text x="800" y="222" fill="#7f8895" font-family="monospace" font-size="9" text-anchor="middle">0.80</text><line x1="854" y1="171" x2="930" y2="171" stroke="#212a3b" stroke-width="2"/><g opacity="1">
  <line x1="893.6" y1="56.1" x2="890.2" y2="136.0" stroke="#37507a" stroke-width="8" stroke-linecap="round" opacity="1"/><line x1="890.2" y1="136.0" x2="880.6" y2="166.6" stroke="#37507a" stroke-width="7" stroke-linecap="round" opacity="1"/>
  <line x1="893.6" y1="56.1" x2="891.8" y2="90.1" stroke="#37507a" stroke-width="6" stroke-linecap="round" opacity="1"/><line x1="891.8" y1="90.1" x2="896.3" y2="121.8" stroke="#37507a" stroke-width="5" stroke-linecap="round" opacity="1"/>
  <line x1="892.0" y1="102.1" x2="893.6" y2="56.1" stroke="#2f3b56" stroke-width="11" stroke-linecap="round" opacity="1"/>
  <line x1="892.0" y1="102.1" x2="893.8" y2="136.0" stroke="#5c8ff5" stroke-width="9" stroke-linecap="round" opacity="1"/><line x1="893.8" y1="136.0" x2="892.1" y2="168.0" stroke="#5c8ff5" stroke-width="8" stroke-linecap="round" opacity="1"/>
  <line x1="893.6" y1="56.1" x2="895.4" y2="90.1" stroke="#5c8ff5" stroke-width="7" stroke-linecap="round" opacity="1"/><line x1="895.4" y1="90.1" x2="901.1" y2="121.6" stroke="#5c8ff5" stroke-width="6" stroke-linecap="round" opacity="1"/>
  <circle cx="894.1" cy="42.1" r="12.0" fill="#ffd7a8" stroke="#c98f5a" stroke-width="2"/>
</g><text x="892" y="222" fill="#7f8895" font-family="monospace" font-size="9" text-anchor="middle">0.90</text><line x1="946" y1="171" x2="1022" y2="171" stroke="#212a3b" stroke-width="2"/><g opacity="1">
  <line x1="985.6" y1="56.1" x2="982.2" y2="136.0" stroke="#37507a" stroke-width="8" stroke-linecap="round" opacity="1"/><line x1="982.2" y1="136.0" x2="972.6" y2="166.6" stroke="#37507a" stroke-width="7" stroke-linecap="round" opacity="1"/>
  <line x1="985.6" y1="56.1" x2="983.8" y2="90.1" stroke="#37507a" stroke-width="6" stroke-linecap="round" opacity="1"/><line x1="983.8" y1="90.1" x2="988.3" y2="121.8" stroke="#37507a" stroke-width="5" stroke-linecap="round" opacity="1"/>
  <line x1="984.0" y1="102.1" x2="985.6" y2="56.1" stroke="#2f3b56" stroke-width="11" stroke-linecap="round" opacity="1"/>
  <line x1="984.0" y1="102.1" x2="985.8" y2="136.0" stroke="#5c8ff5" stroke-width="9" stroke-linecap="round" opacity="1"/><line x1="985.8" y1="136.0" x2="984.1" y2="168.0" stroke="#5c8ff5" stroke-width="8" stroke-linecap="round" opacity="1"/>
  <line x1="985.6" y1="56.1" x2="987.4" y2="90.1" stroke="#5c8ff5" stroke-width="7" stroke-linecap="round" opacity="1"/><line x1="987.4" y1="90.1" x2="993.1" y2="121.6" stroke="#5c8ff5" stroke-width="6" stroke-linecap="round" opacity="1"/>
  <circle cx="986.1" cy="42.1" r="12.0" fill="#ffd7a8" stroke="#c98f5a" stroke-width="2"/>
</g><text x="984" y="222" fill="#7f8895" font-family="monospace" font-size="9" text-anchor="middle">1.00</text><text x="78.72" y="190" fill="#4a5568" font-family="sans-serif" font-size="10" text-anchor="middle" font-style="italic">alive</text><text x="351.96000000000004" y="190" fill="#4a5568" font-family="sans-serif" font-size="10" text-anchor="middle" font-style="italic">collapse</text><text x="483.52000000000004" y="190" fill="#4a5568" font-family="sans-serif" font-size="10" text-anchor="middle" font-style="italic">seed</text><text x="645.4399999999999" y="190" fill="#4a5568" font-family="sans-serif" font-size="10" text-anchor="middle" font-style="italic">emerge</text><text x="959.1600000000001" y="190" fill="#4a5568" font-family="sans-serif" font-size="10" text-anchor="middle" font-style="italic">evolved</text>
</svg>
